<svg width="86" height="86" viewBox="0 0 86 86" fill="none" xmlns="http://www.w3.org/2000/svg">
<path d="M43.6919 62.2761C43.6919 62.2761 3.2249 74.6319 3.13756 75.5255C3.05021 76.4191 19.3365 83.6014 46.5541 83.2252C72.5154 82.8691 82.5465 76.2444 82.7212 75.5255C82.8958 74.8066 44.5855 62.0947 43.6919 62.2761Z" fill="#88B154"/>
<path d="M41.8309 28.3195L38.9351 24.678C38.9351 24.678 34.2588 29.5827 32.9957 30.9197C31.7326 32.2567 30.7584 33.0294 30.1537 34.2858C29.287 36.0797 26.539 51.5664 26.539 51.5664L18.5907 59.7297C18.5907 59.7297 17.0924 58.7958 16.7229 59.0981C16.3534 59.4005 4.17898 73.913 4.17898 73.913L3.13086 75.5187C3.13086 75.5187 5.54961 76.0562 6.29539 75.9823C6.6582 75.9487 8.44539 75.5389 10.4677 75.3306C12.5976 75.1089 15.3187 75.2903 15.621 75.2567C15.9637 75.2231 17.1462 74.8738 17.1462 74.8738L27.7215 68.5648L36.1199 68.2423L44.3571 69.9758L59.9513 70.7216L68.4909 57.9492L49.9269 33.3653L41.8309 28.3195Z" fill="#9EA2A3"/>
<path d="M19.1822 65.6893C19.1822 65.6893 18.8933 64.8629 18.6783 64.2515C18.4633 63.64 18.5909 59.7297 18.5909 59.7297C18.5909 59.7297 23.4352 62.5919 23.9727 63.0622C24.5102 63.5325 29.3073 66.5224 29.3073 66.5224L32.1964 66.4485L32.7809 67.7452C32.7809 67.7452 28.622 69.7205 27.2514 70.1572C25.8808 70.5872 17.0994 75.0552 17.1128 74.8872C17.1397 74.5379 19.3972 71.3061 19.3972 71.3061L19.1822 65.6893Z" fill="#717A7C"/>
<path d="M54.2406 69.5123L21.1441 74.7394C21.1441 74.7394 19.545 76.1571 19.7062 76.5334C19.8675 76.9096 25.9748 78.0451 28.0845 78.3138C30.1942 78.5826 44.6194 79.3955 46.1848 79.288C47.7503 79.1805 63.7477 78.3676 65.9648 78.0988C68.182 77.8301 75.6331 77.3127 76.1236 77.091C77.0709 76.661 81.418 74.3162 81.418 74.3162C81.418 74.3162 76.5536 66.6433 75.5794 64.8024C74.6052 62.9682 72.9859 59.6693 71.8505 58.5338C70.715 57.3984 69.902 56.9146 69.902 56.9146C69.902 56.9146 68.3702 53.3537 66.583 51.0827C64.8025 48.8118 62.3636 45.1366 61.7925 44.5723C59.6492 42.4357 59.5887 42.2341 59.5887 42.2341L60.9325 58.4263C60.9325 58.4263 58.4466 63.3982 57.5798 64.7487C56.7266 66.1126 54.2406 69.5123 54.2406 69.5123Z" fill="#798082"/>
<path d="M42.3485 18.5571L41.6968 31.7393L49.3629 36.4962C49.3629 36.4962 51.6674 42.4019 51.7749 42.9462C51.8824 43.4837 51.6741 44.9416 51.8891 45.3179C52.1041 45.6941 56.0749 48.4287 56.2294 48.4354C57.1096 48.4824 58.9304 48.1666 58.8229 48.0054C58.7154 47.8441 59.5485 44.3369 59.5485 44.3369C59.5485 44.3369 54.281 35.7974 53.1455 33.419C52.0101 31.0405 47.7437 24.8794 47.2532 23.8515C46.7627 22.8235 44.4447 19.4171 43.9543 18.8796C43.4638 18.3421 42.6777 18.1809 42.3485 18.5571Z" fill="#717A7C"/>
<path d="M45.701 43.7055C45.701 43.7055 49.3224 37.7393 49.4299 36.8255C49.5374 35.9118 46.514 30.3419 45.7548 28.3397C44.9956 26.3376 43.0001 22.2324 42.7851 21.6949C42.5701 21.1574 42.3551 18.564 42.3551 18.564C42.3551 18.564 40.8434 20.1832 40.2992 21.4799C39.7617 22.7766 37.7259 25.968 37.7259 25.968C37.7259 25.968 39.0024 33.3721 39.4929 36.5568C39.9767 39.7482 40.3395 43.934 40.2656 44.0885C39.802 45.0291 36.6845 52.6079 36.6845 52.6079C36.6845 52.6079 36.2813 56.283 36.6576 56.6593C37.0338 57.0355 39.2174 57.5327 39.3854 57.2774C39.7146 56.7869 39.7079 54.9258 39.7079 54.9258C39.7079 54.9258 45.7682 46.7424 45.9631 46.3393C46.037 46.1848 45.701 43.7055 45.701 43.7055ZM33.352 44.2901C33.3318 43.4771 32.1426 39.6205 31.9276 38.7538C31.7126 37.8871 31.2557 33.6072 30.6578 33.6072C30.0665 33.6072 27.3253 41.1457 27.0498 41.8512C26.781 42.5566 22.9446 50.8207 22.4542 51.7949C21.9704 52.7691 19.7532 56.9818 19.3232 57.6873C18.8932 58.3927 18.3221 59.5887 18.3221 59.5887L29.3006 66.5291L33.2646 66.079C33.2646 66.079 30.9467 59.8507 30.4024 58.4465C29.8582 57.0423 29.2132 54.7713 29.2132 54.7713C29.2132 54.7713 30.4696 51.7613 31.2893 49.5979C32.1157 47.421 33.3788 45.0963 33.352 44.2901ZM17.012 59.1049C17.0388 59.2057 17.1799 61.7387 17.106 63.2504C17.0321 64.7688 16.7365 66.2873 16.7365 66.2873L11.8453 71.3935L11.6907 72.5424C11.6907 72.5424 4.25979 75.1694 3.77604 75.3173C3.29229 75.4651 3.13776 75.5188 3.13776 75.5188C3.13776 75.5188 2.12994 74.9074 5.14666 71.6152C9.04354 67.3623 14.0288 61.5371 14.6604 60.8048C15.7824 59.508 16.9381 58.8026 17.012 59.1049Z" fill="#C0C0C0"/>
<path d="M71.6957 67.0667C71.2926 66.8987 70.2646 71.4473 70.0496 73.0531C69.8346 74.6589 69.2635 77.7092 69.4113 78.0115C69.8413 78.8648 74.4235 78.3004 74.867 77.5681C74.9946 77.3598 74.3496 73.94 73.886 72.4954C73.2545 70.5201 72.7371 67.5034 71.6957 67.0667ZM79.7246 61.3356C79.0931 61.3625 78.4212 66.8786 78.0046 68.0812C77.5343 69.4451 75.9621 75.9018 76.6138 76.6409C77.2655 77.38 79.7582 76.7954 80.6854 76.5267C81.579 76.2714 82.3516 75.8414 82.5666 75.3643C82.7816 74.8873 82.271 71.0375 81.6529 68.35C81.0213 65.6289 80.719 61.2886 79.7246 61.3356Z" fill="#33632C"/>
<path d="M21.1441 74.7461C21.1441 74.7461 22.8843 75.4045 28.8438 75.7741C34.8033 76.1436 37.7327 76.11 37.7327 76.11L51.3449 74.1212L54.4355 69.23C54.4355 69.23 50.3236 69.0755 48.1401 69.0016C45.9565 68.9277 42.6979 68.9142 42.5501 68.5111C42.4022 68.1012 46.2252 65.3264 47.3002 64.7755C48.3752 64.2178 50.9686 63.9222 51.5599 63.2973C52.1511 62.6658 59.6224 58.4531 60.5429 58.4195C61.47 58.3792 64.3591 60.1597 64.91 59.9716C65.4677 59.7834 62.9885 53.2259 62.6593 51.9964C62.6324 51.8889 61.3222 45.4994 61.2819 45.3784C60.9729 44.4311 60.0255 41.972 59.4275 42.2677C58.8363 42.5633 57.8352 44.8208 57.0961 47.0783C56.3571 49.3358 55.9136 50.525 55.5441 51.0759C55.1746 51.6269 50.8813 54.3748 50.2833 54.9997C49.6921 55.6313 47.9116 56.9616 46.8366 57.405C45.7616 57.8484 44.7269 57.8484 43.9476 58.5539C43.1682 59.2594 42.2074 60.4822 41.1324 61.6244C40.0574 62.7733 37.8738 65.407 37.1549 66.052C36.436 66.697 35.791 67.3219 35.791 67.3219C35.791 67.3219 30.5974 68.7933 28.8505 69.6398C27.1171 70.4931 20.694 74.6319 21.1441 74.7461Z" fill="#C0C0C0"/>
<path d="M75.1091 34.951C74.538 35.5221 74.5178 36.4292 75.1494 36.9465C75.7071 37.4101 76.6275 37.1078 76.9702 36.6912C77.3128 36.2746 77.2725 35.3676 76.8157 34.9107C76.3588 34.4539 75.4518 34.6084 75.1091 34.951Z" fill="white"/>
<path opacity="0.5" d="M75.2969 43.4503C74.6855 44.1221 74.8871 45.1232 75.4514 45.4928C76.0158 45.8623 76.8624 45.8287 77.2789 45.3181C77.6485 44.8612 77.6888 43.9474 77.1244 43.3831C76.6339 42.8926 75.6933 43.0135 75.2969 43.4503Z" fill="white"/>
<path opacity="0.6" d="M57.7812 21.5403C57.6066 22.0979 57.9559 22.7295 58.4867 22.8235C59.0444 22.9243 59.6155 22.7631 59.77 22.2323C59.9245 21.6948 59.7297 21.0229 58.9637 20.8885C58.1978 20.7542 57.8686 21.2379 57.7812 21.5403Z" fill="white"/>
<path d="M63.519 30.9802C63.519 30.9802 64.0162 29.1527 64.379 29.0922C64.7418 29.0317 65.4674 31.0541 65.4674 31.0541C65.4674 31.0541 67.2748 31.1145 67.3352 31.3967C67.3957 31.6856 66.0587 32.7674 66.0587 32.7674C66.0587 32.7674 66.5559 34.4605 66.3476 34.6755C66.1393 34.8838 64.4798 33.8155 64.4798 33.8155C64.4798 33.8155 62.9949 35.0719 62.6523 34.8435C62.3096 34.615 62.9412 32.727 62.9412 32.727C62.9412 32.727 61.5302 31.7192 61.5101 31.3766C61.4832 31.0339 63.519 30.9802 63.519 30.9802ZM22.5346 25.9478C22.5346 25.9478 23.1863 24.0733 23.5827 24.0531C23.9724 24.033 24.5435 25.9277 24.5435 25.9277C24.5435 25.9277 26.4785 25.9478 26.6129 26.23C26.7809 26.5928 25.3699 27.8224 25.3699 27.8224C25.3699 27.8224 25.8268 29.6499 25.6118 29.8716C25.3699 30.1135 23.697 29.1527 23.697 29.1527C23.697 29.1527 21.977 30.3486 21.6074 30.0261C21.2849 29.7439 21.9568 27.8022 21.9568 27.8022C21.9568 27.8022 20.3443 26.6264 20.4316 26.2972C20.5459 25.8403 22.5346 25.9478 22.5346 25.9478Z" fill="white"/>
<path opacity="0.5" d="M7.96822 30.9802C7.5651 30.9601 7.01416 31.3632 7.01416 32.0552C7.01416 32.5658 7.50463 32.9891 7.92791 32.9891C8.53932 32.9891 8.9626 32.5255 8.94244 31.9947C8.91557 31.3027 8.3915 31.0004 7.96822 30.9802Z" fill="white"/>
<path d="M12.4096 41.0045C12.4499 41.7704 12.8329 42.4221 13.8272 42.3952C14.8216 42.3684 15.6413 40.8432 14.694 39.9496C13.7466 39.056 12.3558 39.9765 12.4096 41.0045ZM5.81178 50.3771C6.28209 50.9012 7.41084 50.6929 7.43772 49.7724C7.46459 48.9326 7.04131 48.5362 6.25522 48.6437C5.47584 48.7512 5.24068 49.7388 5.81178 50.3771ZM19.1216 60.7106L17.8921 59.1518L15.4935 60.2537L9.91694 69.2702L11.8251 71.4202C11.8251 71.4202 16.4946 68.8537 16.9918 68.7529C17.7376 68.5984 20.2369 68.6992 20.2369 68.6992L19.1216 60.7106Z" fill="white"/>
<path d="M19.3028 68.6859L23.0787 68.7531C23.0787 68.7531 27.11 70.0095 28.8568 69.6399C30.6037 69.2704 32.579 67.6579 32.579 67.6579C32.579 67.6579 34.1042 67.0398 33.345 66.1596C33.1703 65.9581 32.0281 65.6423 28.9173 64.8629C25.8065 64.0835 25.4034 63.4788 25.4034 63.4788C25.4034 63.4788 21.782 60.966 20.4853 59.9918C19.1886 59.0176 17.9053 59.0042 17.9053 59.0042C17.9053 59.0042 18.7384 62.0813 18.9265 63.929C19.1079 65.7767 19.3028 68.6859 19.3028 68.6859Z" fill="#8CC2EA"/>
<path d="M3.86976 73.194C3.39944 73.7651 6.81929 72.7371 8.12944 72.4213C9.80241 72.0182 11.8382 71.4068 11.8382 71.4068L12.3757 67.3218C12.3757 67.3218 15.8762 61.033 16.333 60.509C16.7899 59.9849 18.5637 59.1048 18.5637 59.1048C18.5637 59.1048 17.5021 58.574 16.7698 58.5337C15.5268 58.4665 13.1551 61.2279 11.9188 62.8471C10.6893 64.4663 8.54601 67.389 8.54601 67.389C8.54601 67.389 7.54491 67.6577 6.52366 69.0955C4.98507 71.2724 3.86976 73.194 3.86976 73.194Z" fill="#C6E4F7"/>
<path d="M26.7406 60.8651C26.2837 60.818 25.7059 62.3432 25.3968 63.4787C25.1751 64.2782 23.744 68.3296 23.576 69.1157C23.4013 69.9085 22.5145 72.2466 22.7563 72.3541C22.9982 72.4549 23.7843 72.6363 24.2009 72.4684C24.3084 72.428 25.7663 71.4202 26.8212 70.7887C27.876 70.1571 28.9174 69.586 28.9174 69.5457C28.9174 69.1359 28.1112 65.3599 28.0238 64.856C27.7753 63.4115 27.4528 60.939 26.7406 60.8651Z" fill="#33632C"/>
<path d="M30.8456 62.3836C30.4492 62.5179 29.9587 64.0498 29.4951 65.6354C29.1995 66.6365 28.3395 69.6398 28.5478 69.7876C28.7561 69.9354 30.7919 69.9623 31.6519 69.5323C32.4783 69.1157 33.0695 68.5917 33.177 68.2961C33.2845 68.0004 32.3439 65.3936 31.9811 64.4395C31.6989 63.7206 31.2622 62.2357 30.8456 62.3836Z" fill="#33632C"/>
<path d="M31.3025 47.3335L22.9982 50.6458L22.333 52.0769C22.333 52.0769 23.623 53.5215 24.5233 54.4957C25.3027 55.3355 27.3855 56.4508 27.755 57.2033C28.4807 58.6815 31.3227 60.1999 32.7403 60.9121C34.158 61.6243 34.2185 60.7912 34.2185 60.7912L31.3025 47.3335ZM34.8433 66.8313L33.1905 68.034C33.1905 68.034 34.971 69.2232 36.2878 69.6196C37.6047 70.016 39.7144 70.8021 41.9518 71.1985C44.1891 71.5949 46.2988 71.3329 47.7433 71.4605C49.1946 71.5949 52.1508 73.0596 52.1508 73.0596C52.1508 73.0596 52.7757 71.7763 53.4005 70.8894C54.0254 70.0093 54.2336 69.5188 54.2336 69.5188L48.5496 68.2826L34.8433 66.8313Z" fill="#9EA2A3"/>
<path d="M51.4117 71.2389C50.928 71.2792 50.2494 74.9073 50.0075 75.7136C49.8731 76.1705 48.7511 79.2947 49.0534 79.8187C49.6581 80.8937 54.63 80.6048 54.8517 80.0405C55.0667 79.4761 53.4341 75.7001 53.1317 75.0014C52.8227 74.3161 52.1239 71.1784 51.4117 71.2389Z" fill="#33632C"/>
<path d="M30.8595 33.2108L23.5293 51.1768C23.5293 51.1768 23.9862 51.8889 24.6312 52.6683C25.2829 53.4477 27.6815 55.3894 28.4609 55.9739C29.2402 56.5585 29.3074 57.0758 30.2749 57.7275C31.2491 58.3793 34.7496 60.0657 35.9859 60.7107L39.2915 62.4643C39.2915 62.4643 37.2154 64.6075 36.6309 65.4474C36.0463 66.294 35.5491 67.1136 35.5491 67.1136L46.2924 68.753C46.2924 68.753 65.0243 60.368 64.9034 59.9582C64.7824 59.5483 64.1307 50.4646 63.741 50.0077C63.3513 49.5508 59.394 43.1949 59.394 43.1949L55.4366 42.6104L49.2084 30.8055L42.6576 20.1025L38.1829 27.043L35.7843 31.4505L30.8595 33.2108Z" fill="white"/>
<path d="M39.3583 58.5675C39.2844 59.0176 40.4602 60.9056 40.9775 60.8384C41.4949 60.7712 44.5452 58.1173 45.3246 57.5932C46.1039 57.0759 50.6458 54.1532 51.6805 53.5082C52.7152 52.8565 55.443 50.4781 55.6378 50.1354C55.8932 49.6718 56.7061 45.4995 56.8674 44.9486C56.9413 44.7067 58.4799 43.4973 58.6478 43.7056C58.9838 44.1154 60.435 48.1265 60.7575 49.2284C61.08 50.3303 63.0285 58.1173 63.1561 58.6347C63.351 59.4006 64.7753 60.8384 65.9444 60.1262C67.1135 59.414 70.3183 58.1307 70.6946 57.5193C70.8961 57.1968 68.128 53.132 66.6432 51.0089C65.1583 48.8857 63.781 46.6551 62.4103 44.7537C61.2883 43.195 60.5896 42.2275 59.8438 41.8311C59.0913 41.4346 58.453 42.3551 58.453 42.3551C58.453 42.3551 52.9705 32.875 51.9963 31.1886C51.0221 29.5021 45.8688 21.4061 44.5855 19.545C43.7457 18.3221 43.2216 17.9661 42.4355 18.4162C41.6494 18.8596 42.0727 22.172 42.0727 22.172C42.0727 22.172 49.4163 36.2276 49.0803 37.1548C48.7377 38.082 46.03 43.0606 44.5385 46.0437C43.0536 49.0336 39.5532 57.4051 39.3583 58.5675Z" fill="#8CC2EA"/>
<path d="M31.5309 34.6621C32.0684 33.8558 36.6976 44.2968 37.8666 44.4244C39.0357 44.5521 39.8151 36.4493 39.6807 34.6285C39.553 32.8144 39.6807 26.781 40.198 25.4843C40.7154 24.1875 42.0793 22.1786 42.0793 22.1786C42.0793 22.1786 42.8385 20.5661 42.9124 20.1361C43.1341 18.8932 42.8385 18.2415 42.8385 18.2415C42.8385 18.2415 42.0793 18.4161 41.3604 19.3904C40.6482 20.3646 37.7121 25.9613 37.7121 25.9613C37.7121 25.9613 34.0302 29.6432 32.9955 30.3554C31.9609 31.0675 30.4626 31.9746 30.1401 32.5591C29.8176 33.1436 27.2846 40.1849 26.0551 43C24.5232 46.5207 23.0451 49.5172 22.9913 50.646C22.9779 50.8677 24.2007 52.1375 24.2007 52.1375C24.2007 52.1375 25.2287 50.1622 26.4582 46.9238C27.6877 43.6854 31.0001 35.4683 31.5309 34.6621ZM36.3146 65.9244C36.3146 65.9244 35.3404 67.1943 35.4546 67.3891C35.7771 67.94 40.5273 69.3308 41.3671 69.4652C42.2069 69.5996 47.0108 70.0497 48.6301 69.9221C50.2493 69.7944 54.2335 69.5122 54.2335 69.5122C54.2335 69.5122 56.8673 66.3544 57.5123 65.8304C58.164 65.313 61.5973 64.0163 61.5973 64.0163L65.8435 60.1866C65.8435 60.1866 64.6073 60.0993 63.9958 59.7365C63.3844 59.3736 63.156 58.6279 63.156 58.6279C63.156 58.6279 60.1729 60.3143 58.9366 60.966C57.7071 61.6177 52.9704 63.1697 51.6065 63.9491C50.2426 64.7285 46.4196 66.6702 46.4196 66.6702C46.4196 66.6702 39.674 67.1875 39.0223 66.9927C38.384 66.8113 36.3146 65.9244 36.3146 65.9244Z" fill="#C6E4F7"/>
<path opacity="0.5" d="M23.8716 13.4912C23.2602 14.163 23.4618 15.1641 24.0262 15.5337C24.5905 15.9032 25.4371 15.8696 25.8537 15.359C26.2232 14.9021 26.2635 13.9884 25.6991 13.424C25.2087 12.9402 24.2613 13.0612 23.8716 13.4912Z" fill="white"/>
</svg>
