<svg width="26" height="24" viewBox="0 0 26 24" fill="none" xmlns="http://www.w3.org/2000/svg">
<path d="M25.3134 5.95204L13.8287 0.81298C13.2715 0.563642 12.6623 0.563642 12.105 0.81298L0.652031 5.95204C0.261544 6.12977 0 6.59696 0 7.12509C0 7.65321 0.261544 8.12294 0.652031 8.29763L3.09034 9.38993C2.60731 10.1923 2.26728 11.1246 2.093 12.1296C1.62703 12.3759 1.3 12.9548 1.3 13.6251C1.3 14.1305 1.49557 14.564 1.78506 14.8621L0.776344 22.4285C0.710125 22.9231 1.01562 23.3751 1.41741 23.3751H3.78259C4.18425 23.3751 4.48987 22.9242 4.42366 22.429L3.41494 14.8626C3.70459 14.5645 3.9 14.0872 3.9 13.6251C3.9 13.1025 3.68981 12.6587 3.38325 12.3611C3.55347 11.4705 3.90213 10.6487 4.39644 9.9729L12.1396 13.4377C12.6968 13.687 13.306 13.687 13.8633 13.4377L25.348 8.29864C25.74 8.1204 26 7.65321 26 7.12509C26 6.59696 25.74 6.12977 25.3134 5.95204ZM14.2634 14.9657C13.8816 15.1536 13.4428 15.2501 13 15.2501C12.5569 15.2503 12.1171 15.1548 11.7 14.968L5.80125 12.3302L5.2 19.5817C5.2 21.679 8.65719 23.3751 13 23.3751C17.2697 23.3751 20.8 21.679 20.8 19.5832L20.1996 12.3266L14.2634 14.9657Z" fill="black"/>
</svg>
